<?xml
version="1.0" encoding="iso-8859-1"?>
<!-- Generator: Adobe Illustrator 17.1.0, SVG Export Plug-In . SVG Version: 6.00 Build 0)  -->
<!DOCTYPE svg PUBLIC "-//W3C//DTDSVG1.1//EN" "http://www.w3.org/Graphics/SVG/1.1/DTD/svg11.dtd">
<svg version="1.1" id="Capa_1" xmlns="http://www.w3.org/2000/svg" xmlns:xlink="http://www.w3.org/1999/xlink" x="0px" y="0px" viewBox="0 0 422.958 422.958" style="enable-background:new 0 0 422.958 422.958; fill:rgb(255,255,255);" xml:space="preserve">
    <g>
        <path d="M239.725,177.436c-4.025-17.449-21.205-31.117-39.112-31.117H196.7v-15.652c0-26.313-37.004-26.313-64.023-26.313
                                                                                    		s-64.024,0-64.024,26.313v15.652h-3.913c-17.907,0-35.087,13.668-39.112,31.116l-9.92,42.999c-2.847,12.342-3.945,31.863-2.5,44.44
                                                                                    		l14.348,124.927c2.136,18.593,18.469,33.158,37.185,33.158h135.874c18.716,0,35.049-14.565,37.185-33.158l14.349-124.927
                                                                                    		c1.444-12.583,0.346-32.104-2.501-44.441L239.725,177.436z M54.859,184.179c0.898-3.893,5.884-7.86,9.88-7.86h135.874
                                                                                    		c3.996,0,8.981,3.967,9.88,7.86l9.92,42.999c0.718,3.109,1.291,7.05,1.696,11.25c-0.849-0.088-1.711-0.134-2.584-0.134H45.827
                                                                                    		c-0.873,0-1.735,0.046-2.584,0.134c0.406-4.199,0.979-8.14,1.696-11.25L54.859,184.179z"/>
        <path d="M396.128,273.58h-2.188c-2.066-5.816-7.609-10-14.125-10h-13V101.072c2.338-2.135,4.175-4.775,5.129-7.675l11.901-36.173
                                                        		c1.894-5.752,3.377-15.004,3.377-21.063V15c0-8.271-6.729-15-15-15h-40.813c-8.271,0-15,6.729-15,15v21.161
                                                        		c0,6.057,1.482,15.308,3.375,21.062l11.902,36.174c0.954,2.9,2.791,5.54,5.129,7.675V263.58h-13c-6.516,0-12.059,4.184-14.125,10
                                                        		h-1.895c-5.851,0-14.554,3.89-14.554,14.607v71.705c0,32.297,26.275,58.573,58.573,58.573s58.573-26.276,58.573-58.573v-71.705
                                                        		C410.387,277.47,401.86,273.58,396.128,273.58z"/>
    </g>
    <g></g>
    <g></g>
    <g></g>
    <g></g>
    <g></g>
    <g></g>
    <g></g>
    <g></g>
    <g></g>
    <g></g>
    <g></g>
    <g></g>
    <g></g>
    <g></g>
    <g></g>
</svg>
