<svg width="2308" height="534" viewBox="0 0 2308 534" fill="none" xmlns="http://www.w3.org/2000/svg">
<g clip-path="url(#clip0_2508_6449)">
<rect width="2308" height="534" fill="white"/>
<rect width="2308" height="534" fill="#F2D6FF" fill-opacity="0.5"/>
<rect x="-47.415" y="417.884" width="238" height="126" rx="50" transform="rotate(5.5 -47.415 417.884)" fill="#FF41CA" fill-opacity="0.15"/>
<path d="M-7.13623 495.942L-1.48199 474.567L1.91141 474.894L-3.74283 496.268L-7.13623 495.942ZM-16.3417 489.618L-15.4529 486.279L1.51404 487.913L0.625259 491.252L-16.3417 489.618ZM-14.7714 495.206L-9.11713 473.832L-5.72373 474.158L-11.378 495.533L-14.7714 495.206ZM-14.374 482.187L-13.4746 478.849L3.49236 480.483L2.59298 483.821L-14.374 482.187ZM8.72499 475.347L8.52947 477.378L25.6702 479.028L25.8657 476.997L8.72499 475.347ZM4.05428 493.493L3.85301 495.583L28.2502 497.932L28.4514 495.842L4.05428 493.493ZM24.7907 476.894L24.4715 480.209C24.0977 484.091 23.7268 487.943 22.0619 493.027L24.4875 493.501C26.1542 488.086 26.5079 484.413 26.8903 480.441L27.2095 477.127L24.7907 476.894ZM24.6989 484.42L7.22045 483.46L7.3804 485.555L24.5207 486.271L24.6989 484.42ZM53.2155 476.828L50.6104 503.883L53.089 504.122L55.6941 477.067L53.2155 476.828ZM33.3394 493.57L33.141 495.631L35.3806 495.846C40.0092 496.292 44.0877 496.504 49.0626 496.169L48.9894 494.113C44.1368 494.429 40.0881 494.22 35.579 493.786L33.3394 493.57ZM34.8151 477.618L34.6196 479.649L44.5934 480.609L44.0557 486.193L34.1416 485.239L33.2646 494.346L35.7431 494.585L36.4246 487.508L46.3686 488.465L47.2974 478.82L34.8151 477.618ZM71.6659 480.503L71.4675 482.564C71.0246 487.163 65.5513 490.795 60.717 491.233L61.6235 493.4C67.1464 492.696 73.0511 488.654 73.6175 482.771L73.8159 480.71L71.6659 480.503ZM72.1138 480.546L71.9154 482.607C71.3461 488.52 76.4036 493.588 81.6608 495.33L82.9641 493.375C78.3322 492.025 73.6198 487.443 74.0654 482.814L74.2638 480.753L72.1138 480.546ZM58.9811 498.932L58.7856 500.963L83.2425 503.318L83.438 501.287L58.9811 498.932ZM89.2911 483.044L87.609 500.514L100.002 501.707L101.684 484.238L89.2911 483.044ZM99.0723 486.005L97.7755 499.473L90.2205 498.746L91.5173 485.278L99.0723 486.005ZM106.75 482.013L104.151 509.008L106.659 509.25L109.259 482.254L106.75 482.013ZM107.623 492.977L107.422 495.067L112.439 495.551L112.64 493.46L107.623 492.977ZM126.607 485.794L126.409 487.854C125.966 492.453 120.493 496.085 115.658 496.524L116.565 498.69C122.088 497.987 127.992 493.944 128.559 488.061L128.757 486.001L126.607 485.794ZM127.055 485.837L126.857 487.897C126.287 493.81 131.345 498.878 136.602 500.62L137.905 498.666C133.273 497.316 128.561 492.733 129.007 488.104L129.205 486.044L127.055 485.837ZM113.922 504.223L113.727 506.253L138.184 508.608L138.379 506.578L113.922 504.223Z" fill="white"/>
<rect x="907.012" y="160.562" width="149" height="67" rx="33.5" transform="rotate(7.5 907.012 160.562)" fill="#FF41CA" fill-opacity="0.15"/>
<path d="M948.638 207.069L952.69 193.665L954.83 193.946L950.779 207.351L948.638 207.069ZM942.952 202.863L943.588 200.769L954.291 202.178L953.655 204.272L942.952 202.863ZM943.822 206.435L947.873 193.031L950.014 193.312L945.963 206.716L943.822 206.435ZM944.361 198.203L945.004 196.11L955.707 197.519L955.064 199.612L944.361 198.203ZM969.891 194.037L967.644 211.104L969.208 211.31L971.455 194.243L969.891 194.037ZM957.111 204.064L956.938 205.383L958.313 205.564C961.741 206.015 963.976 206.213 966.64 206.066L966.644 204.725C964.058 204.864 961.858 204.689 958.486 204.245L957.111 204.064ZM958.413 194.174L957.047 204.554L958.591 204.757L959.787 195.677L966.286 196.533L966.457 195.233L958.413 194.174ZM973.09 208.161L972.918 209.46L988.346 211.491L988.517 210.192L973.09 208.161ZM981.455 197.898L981.269 199.31C980.914 202.004 977.38 203.954 974.375 204.075L974.852 205.403C978.296 205.147 982.129 202.969 982.587 199.484L982.773 198.071L981.455 197.898ZM981.737 197.935L981.551 199.348C981.093 202.833 984.254 205.893 987.574 207.02L988.362 205.84C985.448 204.977 982.515 202.215 982.87 199.521L983.056 198.108L981.737 197.935ZM975.904 196.535L975.733 197.834L988.599 199.528L988.77 198.228L975.904 196.535ZM1004.57 198.603L1002.33 215.632L1003.89 215.837L1006.13 198.808L1004.57 198.603ZM993.047 198.772L991.658 209.321L993.203 209.525L994.592 198.976L993.047 198.772ZM991.78 208.398L991.601 209.755L992.995 209.938C995.689 210.293 998.41 210.44 1001.45 210.227L1001.43 208.864C998.473 209.088 995.755 208.921 993.174 208.582L991.78 208.398Z" fill="white"/>
<rect x="629" y="327" width="240" height="103" rx="50" fill="#FF41CA" fill-opacity="0.15"/>
<path d="M692.282 389.486L695.861 367.668H699.27L695.691 389.486H692.282ZM682.512 384.074L683.077 380.665H700.122L699.558 384.074H682.512ZM684.611 389.486L688.191 367.668H691.6L688.02 389.486H684.611ZM683.759 376.489L684.334 373.08H701.38L700.804 376.489H683.759ZM704.056 383.096V385.166H705.856C709.276 385.166 712.336 385.046 716.146 384.386L715.936 382.346C712.216 382.976 709.156 383.096 705.856 383.096H704.056ZM703.996 367.676V369.716H711.286V375.116H704.056V383.936H706.486V377.126H713.686V367.676H703.996ZM723.796 364.706V391.826H726.196V364.706H723.796ZM714.976 374.426V376.496H719.356V374.426H714.976ZM718.336 365.366V390.416H720.646V365.366H718.336ZM733.874 377.696V379.736H752.504V377.696H733.874ZM730.784 386.096V388.166H755.354V386.096H730.784ZM733.874 367.196V378.596H736.364V369.266H752.234V367.196H733.874ZM778.841 364.736V378.956H781.211V364.736H778.841ZM773.531 365.276V378.776H775.901V365.276H773.531ZM769.361 370.856V372.866H774.491V370.856H769.361ZM763.331 380.276V382.256H778.781V384.836H763.391V390.746H765.881V386.696H781.211V380.276H763.331ZM763.391 389.546V391.526H782.261V389.546H763.391ZM759.581 366.266V377.696H770.081V366.266H767.711V369.836H761.921V366.266H759.581ZM761.921 371.756H767.711V375.746H761.921V371.756ZM787.179 366.566V379.196H797.679V366.566H795.309V370.796H789.519V366.566H787.179ZM789.519 372.776H795.309V377.186H789.519V372.776ZM806.469 364.706V383.126H808.839V364.706H806.469ZM801.279 365.276V380.636H803.649V365.276H801.279ZM796.929 371.816V373.856H802.059V371.816H796.929ZM798.579 382.106V382.976C798.579 386.396 794.109 389.126 789.309 389.786L790.209 391.736C795.729 390.866 800.679 387.656 800.679 382.976V382.106H798.579ZM798.909 382.106V382.976C798.909 387.656 803.919 390.866 809.379 391.736L810.309 389.786C805.509 389.126 801.039 386.396 801.039 382.976V382.106H798.909Z" fill="white"/>
<rect x="340" y="26.2075" width="150.823" height="69" rx="34.5" transform="rotate(-3.5 340 26.2075)" fill="#FF41CA" fill-opacity="0.15"/>
<path d="M398.794 63.7424L400.213 49.8116L402.368 49.6798L400.949 63.6106L398.794 63.7424ZM392.409 60.6989L392.634 58.522L403.409 57.863L403.184 60.0399L392.409 60.6989ZM393.945 64.0389L395.364 50.1081L397.519 49.9763L396.1 63.9071L393.945 64.0389ZM392.904 55.8557L393.135 53.6784L403.911 53.0194L403.679 55.1967L392.904 55.8557ZM412.681 50.9958L412.761 52.3044L417.938 51.9877L417.858 50.6792L412.681 50.9958ZM413.012 56.4197L413.092 57.7282L418.27 57.4116L418.19 56.103L413.012 56.4197ZM409.379 48.6851C406.876 48.8382 405.255 51.2787 405.478 54.9199C405.702 58.58 407.608 60.8048 410.111 60.6517C412.596 60.4997 414.236 58.0581 414.012 54.3979C413.789 50.7567 411.864 48.5331 409.379 48.6851ZM409.466 50.1074C411.116 50.0065 412.363 51.7196 412.533 54.4884C412.703 57.2762 411.677 59.1664 410.027 59.2673C408.377 59.3682 407.127 57.6172 406.957 54.8294C406.788 52.0606 407.816 50.2083 409.466 50.1074ZM417.282 46.8692L418.333 64.0511L419.888 63.956L418.837 46.7741L417.282 46.8692ZM422.696 55.4276L422.775 56.7172L438.326 55.7661L438.247 54.4765L422.696 55.4276ZM424.154 46.8867L424.229 48.1194L434.261 47.5058L434.363 49.1747L424.369 49.786L424.579 53.2186L426.134 53.1235L425.995 50.8477L435.97 50.2376L435.722 46.1792L424.154 46.8867ZM424.542 52.6117L424.617 53.8444L436.527 53.116L436.452 51.8833L424.542 52.6117ZM424.956 58.1447L425.277 63.379L436.75 62.6772L436.43 57.443L424.956 58.1447ZM434.97 58.7886L435.136 61.5005L426.735 62.0144L426.569 59.3024L434.97 58.7886Z" fill="white"/>
<rect x="62" y="177.951" width="210" height="96" rx="48" transform="rotate(-6 62 177.951)" fill="#FF41CA" fill-opacity="0.15"/>
<path d="M138.113 227.428L139.136 209.77L141.849 209.485L140.825 227.143L138.113 227.428ZM129.888 223.939L130.052 221.18L143.614 219.755L143.45 222.514L129.888 223.939ZM132.01 228.07L133.034 210.412L135.746 210.126L134.723 227.785L132.01 228.07ZM130.245 217.8L130.418 215.04L143.98 213.614L143.807 216.375L130.245 217.8ZM146.525 224.01L146.698 225.657L166.247 223.603L166.074 221.956L146.525 224.01ZM154.773 218.22L155.378 223.973L157.359 223.765L156.754 218.012L154.773 218.22ZM153.95 210.392L154.001 210.869C154.352 214.211 151.13 217.083 146.976 218.195L147.905 219.69C152.498 218.387 156.207 215.101 155.743 210.686L155.693 210.208L153.95 210.392ZM154.213 210.364L154.263 210.841C154.727 215.257 159.014 217.702 163.778 218.022L164.376 216.367C160.081 216.142 156.333 214.002 155.982 210.661L155.931 210.183L154.213 210.364ZM146.863 210.002L147.036 211.649L162.932 209.978L162.759 208.332L146.863 210.002ZM153.524 206.334L153.895 209.866L155.876 209.658L155.505 206.126L153.524 206.334ZM169.21 206.35L169.38 207.973L183.081 206.533L182.91 204.91L169.21 206.35ZM168.438 221.514L168.609 223.137L188.11 221.088L187.939 219.464L168.438 221.514ZM182.099 204.996L182.314 207.048C182.583 209.602 182.901 212.634 182.41 216.908L184.416 216.939C184.835 212.43 184.524 209.471 184.248 206.845L184.032 204.793L182.099 204.996ZM183.073 210.13L169.215 212.142L169.706 213.827L183.231 211.634L183.073 210.13ZM175.442 215.131L176.091 221.313L178.072 221.105L177.423 214.923L175.442 215.131ZM190.756 212.991L190.924 214.59L192.308 214.444C195.387 214.121 197.642 213.763 200.311 212.976L199.928 211.399C197.357 212.2 195.148 212.529 192.14 212.845L190.756 212.991ZM189.737 203.758L189.905 205.358L195.634 204.756L195.945 207.715L190.264 208.312L190.869 214.065L192.778 213.864L192.332 209.615L198.012 209.018L197.375 202.956L189.737 203.758ZM198.62 206.758L198.79 208.382L202.752 207.965L202.582 206.342L198.62 206.758ZM204.909 200.475L206.462 215.249L208.348 215.051L206.795 200.276L204.909 200.475ZM200.732 201.372L202.052 213.927L203.913 213.731L202.594 201.176L200.732 201.372ZM200.101 214.88L200.158 215.429C200.452 218.222 197.16 220.884 193.425 221.856L194.376 223.325C198.618 222.131 202.228 219.049 201.829 215.254L201.771 214.705L200.101 214.88ZM200.363 214.853L200.421 215.402C200.82 219.197 205.015 221.458 209.413 221.744L210.038 220.11C206.182 219.936 202.409 218.016 202.115 215.223L202.058 214.674L200.363 214.853Z" fill="white"/>
<rect width="145.933" height="66.8216" rx="33.4108" transform="matrix(0.939457 0.342667 -0.341374 0.939928 1228.81 -47)" fill="#FF41CA" fill-opacity="0.15"/>
<path d="M1258.24 3.45068L1265.09 -8.76057L1267.12 -8.02072L1260.27 4.19053L1258.24 3.45068ZM1253.6 -1.8911L1254.67 -3.79796L1264.82 -0.0987093L1263.74 1.80814L1253.6 -1.8911ZM1253.68 1.78602L1260.53 -10.4252L1262.55 -9.68538L1255.71 2.52587L1253.68 1.78602ZM1255.98 -6.13599L1257.06 -8.04053L1267.2 -4.34128L1266.12 -2.43674L1255.98 -6.13599ZM1270.05 7.75741L1276.9 -4.45384L1278.17 -3.99143L1271.32 8.21982L1270.05 7.75741ZM1265.45 2.00044L1266.11 0.806054L1275.8 4.33883L1275.14 5.53322L1265.45 2.00044ZM1265.49 6.09275L1272.33 -6.1185L1273.6 -5.65609L1266.75 6.55516L1265.49 6.09275ZM1267.85 -2.23751L1268.52 -3.43189L1278.2 0.100886L1277.54 1.29527L1267.85 -2.23751ZM1282.64 5.25122L1280.2 11.9839L1281.7 12.5308L1284.14 5.79811L1282.64 5.25122ZM1293.22 -0.497149L1287.36 15.647L1288.82 16.1809L1294.68 0.0367266L1293.22 -0.497149ZM1278.19 4.15298C1281.39 5.30053 1285.34 6.66144 1289.15 7.48307L1289.43 6.33026C1285.74 5.40967 1281.72 4.00485 1278.45 2.83126L1278.19 4.15298ZM1282.2 -3.11922L1281.76 -1.88698L1288.43 0.548015L1288.88 -0.68423L1282.2 -3.11922ZM1288.31 -0.892572L1288.07 -0.231803C1287.67 0.875432 1286.96 2.82202 1285.39 5.46622L1286.81 6.12511C1288.39 3.44519 1289.12 1.42717 1289.53 0.302073L1289.77 -0.358696L1288.31 -0.892572ZM1303.73 7.40199L1303.28 8.63424L1308.16 10.4116L1308.6 9.17941L1303.73 7.40199ZM1301.88 12.5096L1301.43 13.7418L1306.3 15.5192L1306.75 14.287L1301.88 12.5096ZM1301.62 3.96388C1299.27 3.10447 1296.81 4.69559 1295.56 8.12445C1294.31 11.5712 1295.18 14.3733 1297.53 15.2327C1299.87 16.0856 1302.35 14.501 1303.6 11.0542C1304.84 7.62539 1303.96 4.81678 1301.62 3.96388ZM1301.14 5.30328C1302.69 5.86971 1303.15 7.93906 1302.2 10.5464C1301.25 13.1716 1299.56 14.4954 1298 13.929C1296.45 13.3626 1296 11.2575 1296.96 8.63228C1297.9 6.02492 1299.58 4.73685 1301.14 5.30328ZM1309.59 5.45477L1303.72 21.6347L1305.18 22.1686L1311.06 5.98865L1309.59 5.45477ZM1311.2 15.3246L1310.76 16.539L1325.4 21.8778L1325.84 20.6634L1311.2 15.3246ZM1317.6 18.5275L1316.25 22.2421L1317.75 22.789L1319.1 19.0744L1317.6 18.5275ZM1310.74 22.3773L1310.29 23.6095L1321.45 27.6787L1321.9 26.4464L1310.74 22.3773ZM1312.01 18.8948L1310.62 22.7166L1312.1 23.257L1313.49 19.4352L1312.01 18.8948ZM1321.33 10.2011C1317.9 8.95107 1315.22 9.38734 1314.49 11.3875C1313.76 13.3877 1315.54 15.4516 1318.97 16.7017C1322.38 17.9452 1325.08 17.5154 1325.81 15.5153C1326.53 13.5151 1324.74 11.4447 1321.33 10.2011ZM1320.89 11.4155C1323.35 12.314 1324.69 13.6922 1324.24 14.9423C1323.78 16.2103 1321.87 16.3857 1319.41 15.4873C1316.95 14.5888 1315.6 13.2284 1316.06 11.9604C1316.52 10.7103 1318.43 10.517 1320.89 11.4155Z" fill="white"/>
<rect x="1134" y="439.951" width="210" height="96" rx="48" transform="rotate(-6 1134 439.951)" fill="#FF41CA" fill-opacity="0.15"/>
<path d="M1210.11 489.428L1211.14 471.77L1213.85 471.485L1212.83 489.143L1210.11 489.428ZM1201.89 485.939L1202.05 483.18L1215.61 481.755L1215.45 484.514L1201.89 485.939ZM1204.01 490.07L1205.03 472.412L1207.75 472.126L1206.72 489.785L1204.01 490.07ZM1202.25 479.8L1202.42 477.04L1215.98 475.614L1215.81 478.375L1202.25 479.8ZM1226.73 480.08L1227.3 485.45L1229.28 485.242L1228.72 479.872L1226.73 480.08ZM1226.6 469.186C1222.04 469.665 1218.98 472.231 1219.34 475.668C1219.71 479.105 1223.23 480.979 1227.79 480.499C1232.35 480.02 1235.39 477.457 1235.03 474.02C1234.66 470.583 1231.16 468.707 1226.6 469.186ZM1226.77 470.761C1230.18 470.402 1232.86 471.762 1233.12 474.22C1233.38 476.679 1231.04 478.565 1227.63 478.924C1224.19 479.285 1221.51 477.926 1221.25 475.467C1221 473.009 1223.33 471.122 1226.77 470.761ZM1218.52 485.986L1218.7 487.633L1238.24 485.579L1238.07 483.932L1218.52 485.986ZM1240.84 477.68L1241.01 479.303L1242.39 479.158C1245.47 478.834 1247.73 478.477 1250.39 477.665L1250.01 476.113C1247.44 476.914 1245.23 477.219 1242.22 477.535L1240.84 477.68ZM1239.79 468.138L1239.96 469.737L1245.66 469.137L1245.99 472.24L1240.33 472.835L1240.92 478.468L1242.83 478.267L1242.4 474.162L1248.08 473.565L1247.43 467.335L1239.79 468.138ZM1248.7 471.472L1248.88 473.095L1252.86 472.676L1252.69 471.053L1248.7 471.472ZM1254.95 464.782L1256.66 481.013L1258.54 480.815L1256.84 464.584L1254.95 464.782ZM1250.77 465.632L1252.38 480.908L1254.24 480.712L1252.63 465.437L1250.77 465.632ZM1244.83 485.539L1245 487.162L1259.72 485.614L1259.55 483.991L1244.83 485.539ZM1244.32 480.693L1244.93 486.565L1246.92 486.357L1246.3 480.485L1244.32 480.693ZM1266.66 466.665L1267.03 470.174C1267.42 473.897 1265.24 478.228 1262.27 480.037L1263.58 481.492C1266.84 479.436 1269.11 474.564 1268.63 470.006L1268.26 466.497L1266.66 466.665ZM1267.04 466.625L1267.41 470.134C1267.88 474.621 1271.09 478.531 1274.75 479.787L1275.7 478.094C1272.39 477.067 1269.39 473.617 1269.01 469.965L1268.64 466.457L1267.04 466.625ZM1261.55 466.309L1261.73 467.979L1273.78 466.713L1273.61 465.042L1261.55 466.309ZM1276.29 462.54L1278.56 484.117L1280.54 483.909L1278.27 462.332L1276.29 462.54Z" fill="white"/>
<rect x="1633.37" y="-40" width="210" height="96" rx="48" transform="rotate(5 1633.37 -40)" fill="#FF41CA" fill-opacity="0.15"/>
<path d="M1687.64 22.129L1692.02 4.99043L1694.74 5.22813L1690.36 22.3667L1687.64 22.129ZM1680.24 17.1348L1680.92 14.4572L1694.51 15.6457L1693.82 18.3232L1680.24 17.1348ZM1681.53 21.5942L1685.91 4.45561L1688.62 4.69331L1684.25 21.8319L1681.53 21.5942ZM1681.76 11.1766L1682.45 8.49979L1696.04 9.68827L1695.34 12.3651L1681.76 11.1766ZM1703.66 5.29242C1700.48 5.01422 1697.97 7.75837 1697.57 12.3488C1697.17 16.9632 1699.16 20.1006 1702.34 20.3788C1705.52 20.657 1708.02 17.9129 1708.42 13.2985C1708.83 8.70801 1706.84 5.57062 1703.66 5.29242ZM1703.5 7.08557C1705.58 7.26755 1706.84 9.64257 1706.54 13.1332C1706.23 16.6478 1704.57 18.8154 1702.49 18.6335C1700.39 18.4494 1699.15 16.0287 1699.46 12.5141C1699.76 9.02341 1701.4 6.9015 1703.5 7.08557ZM1712.67 4.41876L1710.78 26.0322L1712.79 26.2079L1714.68 4.59446L1712.67 4.41876ZM1713.45 13.1837L1713.3 14.8573L1717.32 15.2087L1717.46 13.5351L1713.45 13.1837ZM1735.79 6.44131L1733.9 28.0547L1735.88 28.2284L1737.77 6.61492L1735.79 6.44131ZM1729.25 8.20614L1729.22 8.54086C1728.72 14.2789 1725.42 18.6163 1718.92 21.0829L1719.83 22.7768C1727.36 19.87 1730.66 14.6417 1731.21 8.37766L1729.25 8.20614ZM1721.1 7.49285L1720.95 9.11864L1729.97 9.90723L1730.11 8.28144L1721.1 7.49285ZM1747.11 10.5399L1746.81 14.0544C1746.48 17.7125 1743.52 21.5967 1740.3 22.8332L1741.31 24.5115C1744.83 23.085 1747.99 18.6873 1748.38 14.1925L1748.69 10.6779L1747.11 10.5399ZM1747.47 10.5712L1747.16 14.0858C1746.79 18.3655 1749.01 22.9448 1752.29 24.9415L1753.55 23.4618C1750.54 21.7055 1748.44 17.6428 1748.74 14.2239L1749.05 10.7093L1747.47 10.5712ZM1742.26 9.22434L1742.12 10.8979L1753.76 11.9166L1753.91 10.243L1742.26 9.22434ZM1756.66 8.26723L1754.77 29.8807L1756.78 30.0564L1758.67 8.44294L1756.66 8.26723ZM1757.43 17.1278L1757.28 18.8014L1761.3 19.1528L1761.44 17.4792L1757.43 17.1278ZM1779.78 10.2898L1777.89 31.9032L1779.87 32.0768L1781.76 10.4634L1779.78 10.2898ZM1773.24 12.0546L1773.21 12.3893C1772.71 18.1274 1769.41 22.4648 1762.91 24.9313L1763.82 26.6252C1771.35 23.7185 1774.65 18.4902 1775.2 12.2261L1773.24 12.0546ZM1765.09 11.3413L1764.94 12.9671L1773.96 13.7557L1774.1 12.1299L1765.09 11.3413Z" fill="white"/>
<rect width="145.906" height="66.834" rx="33.417" transform="matrix(0.984744 0.174009 -0.173288 0.984871 1959.58 467)" fill="#FF41CA" fill-opacity="0.15"/>
<path d="M2006.26 516.522L2010.89 503.308L2013.01 503.683L2008.39 516.898L2006.26 516.522ZM2000.76 512.07L2001.49 510.006L2012.12 511.884L2011.39 513.948L2000.76 512.07ZM2001.48 515.677L2006.1 502.462L2008.23 502.838L2003.6 516.053L2001.48 515.677ZM2002.37 507.476L2003.11 505.413L2013.74 507.291L2013 509.354L2002.37 507.476ZM2015.67 504.119L2015.44 505.391L2024.86 507.054L2025.08 505.782L2015.67 504.119ZM2013.5 515.004C2016.48 515.53 2020.51 516.184 2024.15 516.229L2024.26 515.052C2020.7 514.868 2016.6 514.181 2013.55 513.642L2013.5 515.004ZM2017.32 505.394L2015.73 514.395L2017.25 514.662L2018.83 505.662L2017.32 505.394ZM2021.58 506.148L2020 515.148L2021.51 515.416L2023.1 506.416L2021.58 506.148ZM2027.21 504.287L2024.24 521.204L2025.81 521.481L2028.79 504.565L2027.21 504.287ZM2027.22 511.254L2026.99 512.564L2030.14 513.12L2030.37 511.81L2027.22 511.254ZM2030.62 518.782L2030.4 520.073L2045.72 522.781L2045.95 521.49L2030.62 518.782ZM2039.23 510.115L2039.16 510.489C2038.68 513.221 2035.58 514.853 2032.24 514.861L2032.63 516.243C2036.39 516.154 2039.9 514.305 2040.53 510.731L2040.59 510.356L2039.23 510.115ZM2039.43 510.151L2039.37 510.526C2038.74 514.1 2041.39 517.037 2044.89 518.408L2045.73 517.245C2042.59 516.093 2040.23 513.496 2040.72 510.764L2040.78 510.389L2039.43 510.151ZM2033.92 508.251L2033.7 509.524L2046.16 511.726L2046.38 510.453L2033.92 508.251ZM2039.79 506.915L2039.3 509.685L2040.86 509.959L2041.34 507.19L2039.79 506.915Z" fill="white"/>
<rect x="1657.12" y="264.124" width="140.706" height="66.911" rx="33.4555" transform="rotate(-20 1657.12 264.124)" fill="#FF41CA" fill-opacity="0.15"/>
<path d="M1719.03 284.858L1716.3 270.374L1718.43 269.596L1721.16 284.081L1719.03 284.858ZM1711.67 283.695L1711.25 281.431L1721.93 277.544L1722.35 279.808L1711.67 283.695ZM1714.22 286.607L1711.49 272.122L1713.63 271.345L1716.36 285.83L1714.22 286.607ZM1710.73 278.659L1710.31 276.392L1720.99 272.506L1721.4 274.772L1710.73 278.659ZM1731.91 262.378L1735.48 272.188L1738 271.272L1734.42 261.461L1731.91 262.378ZM1726.71 276.293L1729.11 282.871L1740.68 278.658L1738.29 272.08L1726.71 276.293ZM1736.54 274.93L1737.5 277.58L1730.83 280.009L1729.87 277.359L1736.54 274.93ZM1724.26 265.864L1724.87 267.537C1725.65 269.679 1725.21 272.348 1722.63 274.311L1724.55 275.846C1727.56 273.537 1728.11 270.017 1726.93 266.784L1726.32 265.112L1724.26 265.864ZM1724.76 265.68L1725.37 267.352C1726.54 270.547 1729.09 272.704 1732.78 272.49L1733.28 270.116C1730.15 270.297 1728.19 268.711 1727.42 266.607L1726.81 264.934L1724.76 265.68ZM1738.78 260.387L1739.46 262.248L1752.42 257.528L1751.75 255.668L1738.78 260.387ZM1740.39 264.418L1741.07 266.278L1753.78 261.654L1753.1 259.794L1740.39 264.418ZM1741.26 260.313L1742.92 264.861L1745.42 263.952L1743.76 259.403L1741.26 260.313ZM1747.3 258.117L1748.95 262.666L1751.45 261.756L1749.8 257.208L1747.3 258.117ZM1739.9 267.728L1740.61 269.682L1756.34 263.957L1755.63 262.002L1739.9 267.728ZM1742.76 269.984L1743.41 271.77L1752.98 268.288L1753.29 269.152L1743.74 272.627L1744.94 275.916L1747.4 275.02L1746.81 273.404L1756.36 269.929L1754.79 265.606L1742.76 269.984ZM1744.69 275.221L1745.35 277.044L1757.81 272.509L1757.15 270.686L1744.69 275.221Z" fill="white"/>
<rect x="2160" y="107.303" width="210" height="96" rx="48" transform="rotate(-5 2160 107.303)" fill="#FF41CA" fill-opacity="0.15"/>
<path d="M2246.23 157.139L2247.57 139.501L2250.28 139.263L2248.95 156.901L2246.23 157.139ZM2238.07 153.507L2238.28 150.751L2251.87 149.562L2251.66 152.318L2238.07 153.507ZM2240.12 157.674L2241.45 140.036L2244.17 139.798L2242.84 157.436L2240.12 157.674ZM2238.54 147.375L2238.76 144.618L2252.34 143.429L2252.12 146.186L2238.54 147.375ZM2267.69 135.097L2268.66 146.263L2271.87 145.982L2270.89 134.817L2267.69 135.097ZM2269.88 139.29L2270.11 141.848L2273.91 141.515L2273.69 138.957L2269.88 139.29ZM2256.81 148.167L2257.02 150.606L2269 149.558L2269.11 150.873L2257.18 151.917L2257.61 156.818L2260.75 156.544L2260.52 153.914L2272.47 152.868L2271.94 146.843L2256.81 148.167ZM2257.5 155.575L2257.72 158.037L2273.5 156.657L2273.28 154.194L2257.5 155.575ZM2254.12 144.186L2254.34 146.696L2255.47 146.598C2257.36 146.433 2258.72 146.314 2260.48 145.798L2260.02 143.309C2258.38 143.79 2257.02 143.933 2255.25 144.088L2254.12 144.186ZM2253.55 137.635L2254.21 145.19L2257.25 144.924L2256.81 139.88L2259.51 139.643L2259.29 137.133L2253.55 137.635ZM2260.94 143.566L2261.15 146.076L2262.33 145.974C2265.08 145.733 2266.27 145.629 2267.72 145.116L2267.26 142.627C2265.86 143.111 2264.71 143.235 2262.11 143.463L2260.94 143.566ZM2260.36 137.039L2261.02 144.594L2264.04 144.33L2263.6 139.286L2266.47 139.035L2266.25 136.524L2260.36 137.039ZM2290.18 133.129L2292.12 155.268L2295.32 154.988L2293.39 132.849L2290.18 133.129ZM2283.86 135.995L2283.91 136.569C2284.43 142.498 2282.48 146.716 2276.39 150.333L2278.26 152.723C2285.79 148.233 2287.6 142.485 2287.01 135.719L2283.86 135.995ZM2276.37 136.65L2276.59 139.16L2285.58 138.374L2285.36 135.864L2276.37 136.65Z" fill="white"/>
</g>
<defs>
<clipPath id="clip0_2508_6449">
<rect width="2308" height="534" fill="white"/>
</clipPath>
</defs>
</svg>
